<?xml version="1.0" encoding="UTF-8" standalone="no"?>
<!DOCTYPE svg PUBLIC "-//W3C//DTD SVG 1.1//EN"
 "http://www.w3.org/Graphics/SVG/1.1/DTD/svg11.dtd">
<!-- Generated by graphviz version 2.40.1 (20161225.0304)
 -->
<!-- Title: G Pages: 1 -->
<svg width="998pt" height="102pt"
 viewBox="0.00 0.00 998.00 102.00" xmlns="http://www.w3.org/2000/svg" xmlns:xlink="http://www.w3.org/1999/xlink">
<g id="graph0" class="graph" transform="scale(1 1) rotate(0) translate(4 98)">
<title>G</title>
<polygon fill="#ffffff" stroke="transparent" points="-4,4 -4,-98 994,-98 994,4 -4,4"/>
<!-- A0 -->
<g id="node1" class="node">
<title>A0</title>
<polygon fill="none" stroke="#000000" points="12,-32 12,-64 43,-64 43,-32 12,-32"/>
<text text-anchor="start" x="22.5" y="-45" font-family="Helvetica,sans-Serif" font-size="10.00" fill="#000000">JJ</text>
<polygon fill="none" stroke="#000000" points="12,0 12,-32 43,-32 43,0 12,0"/>
<text text-anchor="start" x="21.941" y="-13" font-family="Helvetica,sans-Serif" font-size="10.00" fill="#000000">21</text>
</g>
<!-- A1 -->
<g id="node2" class="node">
<title>A1</title>
<polygon fill="none" stroke="#000000" points="119,-32 119,-64 144,-64 144,-32 119,-32"/>
<text text-anchor="start" x="128.721" y="-45" font-family="Helvetica,sans-Serif" font-size="10.00" fill="#000000">II</text>
<polygon fill="none" stroke="#000000" points="119,0 119,-32 144,-32 144,0 119,0"/>
<text text-anchor="start" x="128.7205" y="-13" font-family="Helvetica,sans-Serif" font-size="10.00" fill="#000000">0</text>
</g>
<!-- A0&#45;&gt;A1 -->
<g id="edge1" class="edge">
<title>A0&#45;&gt;A1</title>
<path fill="none" stroke="#000000" d="M54.0533,-32C69.3403,-32 88.397,-32 103.7209,-32"/>
</g>
<!-- A2 -->
<g id="node3" class="node">
<title>A2</title>
<polygon fill="none" stroke="#000000" points="219,-32 219,-64 252,-64 252,-32 219,-32"/>
<text text-anchor="start" x="228.831" y="-45" font-family="Helvetica,sans-Serif" font-size="10.00" fill="#000000">AA</text>
<polygon fill="none" stroke="#000000" points="219,0 219,-32 252,-32 252,0 219,0"/>
<text text-anchor="start" x="232.7205" y="-13" font-family="Helvetica,sans-Serif" font-size="10.00" fill="#000000">0</text>
</g>
<!-- A1&#45;&gt;A2 -->
<g id="edge2" class="edge">
<title>A1&#45;&gt;A2</title>
<path fill="none" stroke="#000000" d="M158.0533,-32C173.3403,-32 192.397,-32 207.7209,-32"/>
</g>
<!-- A3 -->
<g id="node4" class="node">
<title>A3</title>
<polygon fill="none" stroke="#000000" points="323,-62 323,-94 356,-94 356,-62 323,-62"/>
<text text-anchor="start" x="332.831" y="-75" font-family="Helvetica,sans-Serif" font-size="10.00" fill="#000000">BB</text>
<polygon fill="none" stroke="#000000" points="323,-30 323,-62 356,-62 356,-30 323,-30"/>
<text text-anchor="start" x="333.941" y="-43" font-family="Helvetica,sans-Serif" font-size="10.00" fill="#000000">13</text>
</g>
<!-- A2&#45;&gt;A3 -->
<g id="edge3" class="edge">
<title>A2&#45;&gt;A3</title>
<path fill="none" stroke="#000000" d="M262.0533,-39.8038C277.3403,-44.2135 296.397,-49.7107 311.7209,-54.131"/>
</g>
<!-- A4 -->
<g id="node5" class="node">
<title>A4</title>
<polygon fill="none" stroke="#000000" points="530,-32 530,-64 564,-64 564,-32 530,-32"/>
<text text-anchor="start" x="539.781" y="-45" font-family="Helvetica,sans-Serif" font-size="10.00" fill="#000000">DD</text>
<polygon fill="none" stroke="#000000" points="530,0 530,-32 564,-32 564,0 530,0"/>
<text text-anchor="start" x="541.441" y="-13" font-family="Helvetica,sans-Serif" font-size="10.00" fill="#000000">20</text>
</g>
<!-- A2&#45;&gt;A4 -->
<g id="edge4" class="edge">
<title>A2&#45;&gt;A4</title>
<path fill="none" stroke="#000000" d="M262.3391,-27.1313C277.0095,-24.7628 295.4321,-22.1774 312,-21 382.0456,-16.022 399.9544,-16.022 470,-21 486.5679,-22.1774 504.9905,-24.7628 519.6609,-27.1313"/>
</g>
<!-- A5 -->
<g id="node6" class="node">
<title>A5</title>
<polygon fill="none" stroke="#000000" points="426,-62 426,-94 460,-94 460,-62 426,-62"/>
<text text-anchor="start" x="435.781" y="-75" font-family="Helvetica,sans-Serif" font-size="10.00" fill="#000000">CC</text>
<polygon fill="none" stroke="#000000" points="426,-30 426,-62 460,-62 460,-30 426,-30"/>
<text text-anchor="start" x="440.2205" y="-43" font-family="Helvetica,sans-Serif" font-size="10.00" fill="#000000">2</text>
</g>
<!-- A3&#45;&gt;A5 -->
<g id="edge5" class="edge">
<title>A3&#45;&gt;A5</title>
<path fill="none" stroke="#000000" d="M366.0533,-62C381.3403,-62 400.397,-62 415.7209,-62"/>
</g>
<!-- A6 -->
<g id="node7" class="node">
<title>A6</title>
<polygon fill="none" stroke="#000000" points="635,-32 635,-64 668,-64 668,-32 635,-32"/>
<text text-anchor="start" x="644.831" y="-45" font-family="Helvetica,sans-Serif" font-size="10.00" fill="#000000">EE</text>
<polygon fill="none" stroke="#000000" points="635,0 635,-32 668,-32 668,0 635,0"/>
<text text-anchor="start" x="648.7205" y="-13" font-family="Helvetica,sans-Serif" font-size="10.00" fill="#000000">3</text>
</g>
<!-- A4&#45;&gt;A6 -->
<g id="edge7" class="edge">
<title>A4&#45;&gt;A6</title>
<path fill="none" stroke="#000000" d="M574.0533,-32C589.3403,-32 608.397,-32 623.7209,-32"/>
</g>
<!-- A5&#45;&gt;A4 -->
<g id="edge6" class="edge">
<title>A5&#45;&gt;A4</title>
<path fill="none" stroke="#000000" d="M470.0533,-54.1962C485.3403,-49.7865 504.397,-44.2893 519.7209,-39.869"/>
</g>
<!-- A7 -->
<g id="node8" class="node">
<title>A7</title>
<polygon fill="none" stroke="#000000" points="739,-32 739,-64 771,-64 771,-32 739,-32"/>
<text text-anchor="start" x="748.891" y="-45" font-family="Helvetica,sans-Serif" font-size="10.00" fill="#000000">FF</text>
<polygon fill="none" stroke="#000000" points="739,0 739,-32 771,-32 771,0 739,0"/>
<text text-anchor="start" x="752.2205" y="-13" font-family="Helvetica,sans-Serif" font-size="10.00" fill="#000000">0</text>
</g>
<!-- A6&#45;&gt;A7 -->
<g id="edge8" class="edge">
<title>A6&#45;&gt;A7</title>
<path fill="none" stroke="#000000" d="M678.0533,-32C693.3403,-32 712.397,-32 727.7209,-32"/>
</g>
<!-- A8 -->
<g id="node9" class="node">
<title>A8</title>
<polygon fill="none" stroke="#000000" points="842,-32 842,-64 877,-64 877,-32 842,-32"/>
<text text-anchor="start" x="851.721" y="-45" font-family="Helvetica,sans-Serif" font-size="10.00" fill="#000000">GG</text>
<polygon fill="none" stroke="#000000" points="842,0 842,-32 877,-32 877,0 842,0"/>
<text text-anchor="start" x="856.7205" y="-13" font-family="Helvetica,sans-Serif" font-size="10.00" fill="#000000">0</text>
</g>
<!-- A7&#45;&gt;A8 -->
<g id="edge9" class="edge">
<title>A7&#45;&gt;A8</title>
<path fill="none" stroke="#000000" d="M782.0533,-32C797.3403,-32 816.397,-32 831.7209,-32"/>
</g>
<!-- A9 -->
<g id="node10" class="node">
<title>A9</title>
<polygon fill="none" stroke="#000000" points="946,-32 946,-64 980,-64 980,-32 946,-32"/>
<text text-anchor="start" x="955.781" y="-45" font-family="Helvetica,sans-Serif" font-size="10.00" fill="#000000">HH</text>
<polygon fill="none" stroke="#000000" points="946,0 946,-32 980,-32 980,0 946,0"/>
<text text-anchor="start" x="957.441" y="-13" font-family="Helvetica,sans-Serif" font-size="10.00" fill="#000000">22</text>
</g>
<!-- A8&#45;&gt;A9 -->
<g id="edge10" class="edge">
<title>A8&#45;&gt;A9</title>
<path fill="none" stroke="#000000" d="M886.0533,-32C901.3403,-32 920.397,-32 935.7209,-32"/>
</g>
</g>
</svg>
